<svg width="30" height="30" viewBox="0 0 30 30" fill="none" xmlns="http://www.w3.org/2000/svg">
<path d="M5.3145 26.4539C2.93868 24.4448 1.24639 21.7468 0.472008 18.7333C-0.302369 15.7198 -0.120505 12.5401 0.992413 9.6346C2.10533 6.72908 4.09422 4.24153 6.68361 2.51651C9.27299 0.79148 12.3347 -0.0856537 15.4447 0.00659425C18.5547 0.0988422 21.5591 1.15591 24.0417 3.03138C26.5243 4.90685 28.3622 7.5079 29.301 10.4743C30.2397 13.4407 30.2328 16.6255 29.2812 19.5878C28.3295 22.5501 26.4803 25.1431 23.9896 27.0078L20.7206 22.6413C22.3057 21.4547 23.4824 19.8046 24.088 17.9195C24.6936 16.0344 24.698 14.0077 24.1006 12.12C23.5032 10.2323 22.3336 8.57709 20.7538 7.3836C19.174 6.19012 17.2621 5.51745 15.283 5.45874C13.3039 5.40004 11.3555 5.95822 9.70775 7.05596C8.05996 8.1537 6.7943 9.73669 6.08608 11.5857C5.37786 13.4346 5.26213 15.4581 5.75491 17.3757C6.2477 19.2934 7.32461 21.0104 8.8365 22.2888L5.3145 26.4539Z" fill="#F9896B"/>
<path d="M22.678 13.1679C22.954 14.3245 22.9651 15.5284 22.7105 16.6899C22.456 17.8514 21.9423 18.9403 21.208 19.8755C20.4736 20.8106 19.5374 21.5677 18.4694 22.0903C17.4013 22.6129 16.2291 22.8875 15.04 22.8935C13.851 22.8996 12.676 22.6369 11.6027 22.1252C10.5295 21.6135 9.58565 20.8659 8.84179 19.9383C8.09793 19.0107 7.57324 17.927 7.30691 16.7682C7.04057 15.6093 7.03947 14.4053 7.30367 13.246L10.1023 13.8838C9.93419 14.6216 9.93489 15.3878 10.1044 16.1252C10.2739 16.8626 10.6078 17.5522 11.0811 18.1425C11.5545 18.7328 12.1551 19.2086 12.8381 19.5342C13.5211 19.8599 14.2688 20.027 15.0255 20.0232C15.7821 20.0193 16.5281 19.8446 17.2078 19.512C17.8874 19.1795 18.4832 18.6976 18.9505 18.1026C19.4178 17.5075 19.7447 16.8145 19.9067 16.0754C20.0687 15.3363 20.0616 14.5701 19.886 13.8341L22.678 13.1679Z" fill="#7947F7"/>
</svg>
